Normalized EMG Linear Envelopes
nRows=49
nColumns=17

endheader
time	        VM	        VL	        RF	       GRA	        TA	   ADDLONG	   SEMIMEM	      BFLH	        GM	        GL	       TFL	   GLUTMAX	   GLUTMED	      PIRI	    OBTINT	        QF	
1.875	  0.026817	  0.016493	  0.097644	  0.126461	  0.175182	  0.031602	  0.107967	  0.105588	  0.133963	  0.030018	  0.061812	  0.035671	  0.096287	  0.259054	  0.345654	  0.096828	
1.8755	  0.026591	  0.015928	  0.094394	  0.128175	  0.173320	  0.031504	  0.110361	  0.106638	  0.134841	  0.030036	  0.060169	  0.034983	  0.094710	  0.259049	  0.344320	  0.097074	
1.876	  0.026381	  0.015375	  0.091203	  0.129949	  0.171469	  0.031415	  0.112811	  0.107724	  0.135707	  0.030059	  0.058550	  0.034305	  0.093145	  0.259026	  0.342970	  0.097343	
1.8765	  0.026185	  0.014832	  0.088070	  0.131783	  0.169628	  0.031335	  0.115316	  0.108846	  0.136560	  0.030087	  0.056956	  0.033636	  0.091593	  0.258986	  0.341605	  0.097637	
1.877	  0.026006	  0.014301	  0.084994	  0.133678	  0.167799	  0.031265	  0.117878	  0.110005	  0.137400	  0.030121	  0.055386	  0.032977	  0.090054	  0.258928	  0.340227	  0.097957	
1.8775	  0.025842	  0.013782	  0.081976	  0.135633	  0.165981	  0.031204	  0.120498	  0.111201	  0.138228	  0.030161	  0.053840	  0.032327	  0.088529	  0.258853	  0.338838	  0.098303	
1.878	  0.025694	  0.013274	  0.079016	  0.137649	  0.164176	  0.031153	  0.123174	  0.112435	  0.139043	  0.030206	  0.052318	  0.031686	  0.087017	  0.258762	  0.337439	  0.098675	
1.8785	  0.025563	  0.012778	  0.076113	  0.139725	  0.162385	  0.031113	  0.125909	  0.113707	  0.139845	  0.030257	  0.050821	  0.031056	  0.085519	  0.258655	  0.336032	  0.099076	
1.879	  0.025448	  0.012293	  0.073266	  0.141862	  0.160607	  0.031082	  0.128701	  0.115017	  0.140635	  0.030315	  0.049348	  0.030436	  0.084035	  0.258531	  0.334620	  0.099504	
1.8795	  0.025350	  0.011821	  0.070477	  0.144059	  0.158843	  0.031062	  0.131552	  0.116366	  0.141414	  0.030378	  0.047900	  0.029826	  0.082566	  0.258392	  0.333204	  0.099962	
1.88	  0.025269	  0.011360	  0.067743	  0.146317	  0.157094	  0.031052	  0.134462	  0.117753	  0.142182	  0.030448	  0.046476	  0.029226	  0.081112	  0.258238	  0.331787	  0.100449	
1.8805	  0.025206	  0.010912	  0.065066	  0.148635	  0.155360	  0.031053	  0.137430	  0.119179	  0.142938	  0.030524	  0.045077	  0.028637	  0.079674	  0.258068	  0.330370	  0.100966	
1.881	  0.025160	  0.010475	  0.062444	  0.151014	  0.153642	  0.031065	  0.140458	  0.120644	  0.143685	  0.030606	  0.043702	  0.028058	  0.078251	  0.257884	  0.328955	  0.101514	
1.8815	  0.025132	  0.010050	  0.059878	  0.153453	  0.151939	  0.031088	  0.143545	  0.122149	  0.144423	  0.030695	  0.042352	  0.027490	  0.076844	  0.257686	  0.327545	  0.102094	
1.882	  0.025122	  0.009638	  0.057367	  0.155953	  0.150252	  0.031122	  0.146691	  0.123693	  0.145152	  0.030791	  0.041025	  0.026933	  0.075453	  0.257474	  0.326142	  0.102705	
1.8825	  0.025130	  0.009238	  0.054910	  0.158513	  0.148582	  0.031167	  0.149897	  0.125276	  0.145874	  0.030892	  0.039724	  0.026387	  0.074078	  0.257249	  0.324746	  0.103349	
1.883	  0.025156	  0.008850	  0.052507	  0.161132	  0.146929	  0.031224	  0.153161	  0.126899	  0.146589	  0.031001	  0.038446	  0.025852	  0.072720	  0.257010	  0.323361	  0.104026	
1.8835	  0.025202	  0.008475	  0.050158	  0.163811	  0.145292	  0.031292	  0.156486	  0.128561	  0.147299	  0.031116	  0.037192	  0.025329	  0.071379	  0.256760	  0.321988	  0.104737	
1.884	  0.025266	  0.008112	  0.047862	  0.166550	  0.143673	  0.031373	  0.159869	  0.130263	  0.148004	  0.031238	  0.035963	  0.024817	  0.070055	  0.256497	  0.320630	  0.105481	
1.8845	  0.025349	  0.007762	  0.045618	  0.169348	  0.142072	  0.031465	  0.163312	  0.132004	  0.148705	  0.031366	  0.034757	  0.024316	  0.068747	  0.256222	  0.319288	  0.106260	
1.885	  0.025452	  0.007424	  0.043427	  0.172205	  0.140488	  0.031570	  0.166814	  0.133784	  0.149403	  0.031501	  0.033576	  0.023827	  0.067457	  0.255936	  0.317964	  0.107074	
1.8855	  0.025574	  0.007099	  0.041288	  0.175120	  0.138922	  0.031687	  0.170375	  0.135604	  0.150098	  0.031643	  0.032417	  0.023349	  0.066185	  0.255639	  0.316662	  0.107923	
1.886	  0.025716	  0.006786	  0.039200	  0.178093	  0.137375	  0.031816	  0.173995	  0.137463	  0.150792	  0.031792	  0.031283	  0.022884	  0.064930	  0.255331	  0.315384	  0.108808	
1.8865	  0.025878	  0.006486	  0.037163	  0.181125	  0.135845	  0.031958	  0.177673	  0.139361	  0.151485	  0.031947	  0.030172	  0.022430	  0.063692	  0.255012	  0.314132	  0.109730	
1.887	  0.026060	  0.006199	  0.035177	  0.184213	  0.134334	  0.032112	  0.181410	  0.141298	  0.152178	  0.032109	  0.029084	  0.021989	  0.062473	  0.254683	  0.312909	  0.110687	
1.8875	  0.026263	  0.005924	  0.033240	  0.187358	  0.132841	  0.032279	  0.185205	  0.143273	  0.152870	  0.032277	  0.028019	  0.021560	  0.061271	  0.254345	  0.311719	  0.111682	
1.888	  0.026486	  0.005663	  0.031352	  0.190560	  0.131368	  0.032459	  0.189057	  0.145287	  0.153564	  0.032453	  0.026977	  0.021143	  0.060088	  0.253997	  0.310563	  0.112714	
1.8885	  0.026730	  0.005414	  0.029513	  0.193819	  0.129913	  0.032653	  0.192966	  0.147339	  0.154259	  0.032634	  0.025958	  0.020738	  0.058922	  0.253641	  0.309445	  0.113784	
1.889	  0.026994	  0.005178	  0.027722	  0.197133	  0.128477	  0.032859	  0.196933	  0.149429	  0.154955	  0.032823	  0.024962	  0.020347	  0.057775	  0.253276	  0.308367	  0.114891	
1.8895	  0.027280	  0.004955	  0.025978	  0.200502	  0.127061	  0.033078	  0.200956	  0.151557	  0.155654	  0.033017	  0.023988	  0.019967	  0.056646	  0.252902	  0.307333	  0.116037	
1.89	  0.027587	  0.004745	  0.024282	  0.203928	  0.125666	  0.033311	  0.205034	  0.153722	  0.156355	  0.033219	  0.023036	  0.019601	  0.055536	  0.252521	  0.306345	  0.117221	
1.8905	  0.027915	  0.004548	  0.022632	  0.207408	  0.124290	  0.033557	  0.209168	  0.155923	  0.157059	  0.033426	  0.022106	  0.019248	  0.054444	  0.252133	  0.305405	  0.118444	
1.891	  0.028265	  0.004364	  0.021027	  0.210943	  0.122936	  0.033817	  0.213357	  0.158162	  0.157766	  0.033640	  0.021198	  0.018907	  0.053370	  0.251737	  0.304517	  0.119706	
1.8915	  0.028637	  0.004194	  0.019468	  0.214533	  0.121603	  0.034090	  0.217600	  0.160436	  0.158477	  0.033861	  0.020312	  0.018580	  0.052316	  0.251335	  0.303682	  0.121007	
1.892	  0.029030	  0.004036	  0.017954	  0.218177	  0.120293	  0.034377	  0.221896	  0.162745	  0.159192	  0.034087	  0.019448	  0.018266	  0.051280	  0.250926	  0.302903	  0.122348	
1.8925	  0.029446	  0.003892	  0.016483	  0.221875	  0.119004	  0.034678	  0.226244	  0.165090	  0.159910	  0.034320	  0.018604	  0.017966	  0.050263	  0.250512	  0.302183	  0.123729	
1.893	  0.029884	  0.003761	  0.015056	  0.225626	  0.117739	  0.034993	  0.230644	  0.167470	  0.160632	  0.034559	  0.017782	  0.017679	  0.049265	  0.250092	  0.301523	  0.125150	
1.8935	  0.030344	  0.003643	  0.013672	  0.229430	  0.116497	  0.035322	  0.235094	  0.169884	  0.161359	  0.034804	  0.016980	  0.017406	  0.048285	  0.249667	  0.300926	  0.126611	
1.894	  0.030826	  0.003539	  0.012330	  0.233286	  0.115279	  0.035665	  0.239594	  0.172332	  0.162089	  0.035055	  0.016199	  0.017146	  0.047325	  0.249238	  0.300394	  0.128112	
1.8945	  0.031332	  0.003447	  0.011029	  0.237195	  0.114087	  0.036022	  0.244142	  0.174812	  0.162824	  0.035312	  0.015438	  0.016901	  0.046383	  0.248805	  0.299929	  0.129654	
1.895	  0.031860	  0.003370	  0.009770	  0.241154	  0.112920	  0.036394	  0.248737	  0.177326	  0.163562	  0.035574	  0.014697	  0.016669	  0.045461	  0.248369	  0.299533	  0.131237	
1.8955	  0.032411	  0.003306	  0.008551	  0.245165	  0.111780	  0.036780	  0.253379	  0.179872	  0.164305	  0.035843	  0.013977	  0.016451	  0.044557	  0.247930	  0.299208	  0.132861	
1.896	  0.032985	  0.003255	  0.007371	  0.249225	  0.110667	  0.037180	  0.258066	  0.182449	  0.165052	  0.036117	  0.013275	  0.016248	  0.043672	  0.247489	  0.298956	  0.134525	
1.8965	  0.033582	  0.003217	  0.006231	  0.253335	  0.109581	  0.037594	  0.262797	  0.185057	  0.165803	  0.036397	  0.012594	  0.016059	  0.042806	  0.247047	  0.298779	  0.136231	
1.897	  0.034203	  0.003194	  0.005130	  0.257493	  0.108524	  0.038023	  0.267570	  0.187695	  0.166558	  0.036683	  0.011931	  0.015885	  0.041959	  0.246604	  0.298677	  0.137977	
1.8975	  0.034847	  0.003183	  0.004066	  0.261699	  0.107496	  0.038466	  0.272385	  0.190362	  0.167318	  0.036974	  0.011287	  0.015725	  0.041131	  0.246161	  0.298654	  0.139765	
1.898	  0.035515	  0.003187	  0.003039	  0.265951	  0.106497	  0.038923	  0.277240	  0.193058	  0.168083	  0.037270	  0.010662	  0.015580	  0.040322	  0.245718	  0.298710	  0.141593	
1.8985	  0.036207	  0.003204	  0.002050	  0.270249	  0.105528	  0.039395	  0.282134	  0.195781	  0.168852	  0.037572	  0.010055	  0.015450	  0.039531	  0.245277	  0.298847	  0.143462	
1.899	  0.036922	  0.003235	  0.001096	  0.274592	  0.104589	  0.039881	  0.287065	  0.198531	  0.169627	  0.037879	  0.009466	  0.015335	  0.038760	  0.244837	  0.299068	  0.145373	
